HIERARCHY
ROOT Hips
{
  OFFSET 5.84602e-005 68.8428 3.50346
  CHANNELS 6 Xposition Yposition Zposition Zrotation Xrotation Yrotation
  JOINT Spine
  {
    OFFSET 0 8.597 -4.6522
    CHANNELS 3 Zrotation Xrotation Yrotation
    JOINT Spine1
    {
      OFFSET 0 7.8454 0.4098
      CHANNELS 3 Zrotation Xrotation Yrotation
      JOINT Spine2
      {
        OFFSET 0 9.7078 -2.1609
        CHANNELS 3 Zrotation Xrotation Yrotation
        JOINT Neck
        {
          OFFSET 0 21.8761 -0.4549
          CHANNELS 3 Zrotation Xrotation Yrotation
          JOINT Head
          {
            OFFSET 0 12.3537 3.3602
            CHANNELS 3 Zrotation Xrotation Yrotation
            End Site
            {
              OFFSET 0.0001 18.9506 0.5657
            }
          }
        }
        JOINT LeftShoulder
        {
          OFFSET 2.2086 21.1115 7.2329
          CHANNELS 3 Zrotation Xrotation Yrotation
          JOINT LeftArm
          {
            OFFSET 13.1193 3.0282 -4.8998
            CHANNELS 3 Zrotation Xrotation Yrotation
            JOINT LeftForeArm
            {
              OFFSET 27.4081 -0.0973053 -0.2375
              CHANNELS 3 Zrotation Xrotation Yrotation
              JOINT LeftHand
              {
                OFFSET 22.8641 0.0662994 -0.1369
                CHANNELS 3 Zrotation Xrotation Yrotation
                JOINT LeftHandIndex1
                {
                  OFFSET 8.8614 0.775009 2.4612
                  CHANNELS 3 Zrotation Xrotation Yrotation
                  JOINT LeftHandIndex2
                  {
                    OFFSET 3.3146 -0.808304 0.5841
                    CHANNELS 3 Zrotation Xrotation Yrotation
                    JOINT LeftHandIndex3
                    {
                      OFFSET 2.2628 -0.552002 0.3989
                      CHANNELS 3 Zrotation Xrotation Yrotation
                      End Site
                      {
                        OFFSET 1.6102 -0.4807 0.2612
                      }
                    }
                  }
                }
                JOINT LeftHandMiddle1
                {
                  OFFSET 8.9937 0.895004 0.2143
                  CHANNELS 3 Zrotation Xrotation Yrotation
                  JOINT LeftHandMiddle2
                  {
                    OFFSET 4.0984 0.0113983 -0.0242
                    CHANNELS 3 Zrotation Xrotation Yrotation
                    JOINT LeftHandMiddle3
                    {
                      OFFSET 2.2716 0.00689697 -0.0138001
                      CHANNELS 3 Zrotation Xrotation Yrotation
                      End Site
                      {
                        OFFSET 2.0404 -0.1441 0.0027
                      }
                    }
                  }
                }
                JOINT LeftHandRing1
                {
                  OFFSET 8.5234 0.597198 -2.0164
                  CHANNELS 3 Zrotation Xrotation Yrotation
                  JOINT LeftHandRing2
                  {
                    OFFSET 3.7188 -0.188293 -0.2328
                    CHANNELS 3 Zrotation Xrotation Yrotation
                    JOINT LeftHandRing3
                    {
                      OFFSET 2.1191 -0.106598 -0.1332
                      CHANNELS 3 Zrotation Xrotation Yrotation
                      End Site
                      {
                        OFFSET 1.8737 -0.2304 -0.0886
                      }
                    }
                  }
                }
                JOINT LeftHandPinky1
                {
                  OFFSET 7.9094 -0.601089 -3.4825
                  CHANNELS 3 Zrotation Xrotation Yrotation
                  JOINT LeftHandPinky2
                  {
                    OFFSET 2.2874 -0.477005 -0.6314
                    CHANNELS 3 Zrotation Xrotation Yrotation
                    JOINT LeftHandPinky3
                    {
                      OFFSET 1.6774 -0.349396 -0.4633
                      CHANNELS 3 Zrotation Xrotation Yrotation
                      End Site
                      {
                        OFFSET 1.4888 -0.4091 -0.3416
                      }
                    }
                  }
                }
                JOINT LeftHandThumb1
                {
                  OFFSET 1.833 -1.3875 1.3896
                  CHANNELS 3 Zrotation Xrotation Yrotation
                  JOINT LeftHandThumb2
                  {
                    OFFSET 3.4129 -1.121 2.5732
                    CHANNELS 3 Zrotation Xrotation Yrotation
                    JOINT LeftHandThumb3
                    {
                      OFFSET 2.2474 -0.804199 1.6192
                      CHANNELS 3 Zrotation Xrotation Yrotation
                      End Site
                      {
                        OFFSET 1.6527 -0.5689 1.1317
                      }
                    }
                  }
                }
              }
            }
          }
        }
        JOINT RightShoulder
        {
          OFFSET -2.2086 21.1115 7.2329
          CHANNELS 3 Zrotation Xrotation Yrotation
          JOINT RightArm
          {
            OFFSET -13.1216 3.0287 -4.9007
            CHANNELS 3 Zrotation Xrotation Yrotation
            JOINT RightForeArm
            {
              OFFSET -27.4081 -0.0973053 -0.2375
              CHANNELS 3 Zrotation Xrotation Yrotation
              JOINT RightHand
              {
                OFFSET -22.8641 0.0664063 -0.1369
                CHANNELS 3 Zrotation Xrotation Yrotation
                JOINT RightHandIndex1
                {
                  OFFSET -8.8614 0.774994 2.4612
                  CHANNELS 3 Zrotation Xrotation Yrotation
                  JOINT RightHandIndex2
                  {
                    OFFSET -3.3146 -0.808304 0.5841
                    CHANNELS 3 Zrotation Xrotation Yrotation
                    JOINT RightHandIndex3
                    {
                      OFFSET -2.2628 -0.552002 0.3989
                      CHANNELS 3 Zrotation Xrotation Yrotation
                      End Site
                      {
                        OFFSET -1.6102 -0.4807 0.2612
                      }
                    }
                  }
                }
                JOINT RightHandMiddle1
                {
                  OFFSET -8.9937 0.894989 0.2143
                  CHANNELS 3 Zrotation Xrotation Yrotation
                  JOINT RightHandMiddle2
                  {
                    OFFSET -4.0984 0.0113983 -0.0242
                    CHANNELS 3 Zrotation Xrotation Yrotation
                    JOINT RightHandMiddle3
                    {
                      OFFSET -2.2716 0.00691223 -0.0138001
                      CHANNELS 3 Zrotation Xrotation Yrotation
                      End Site
                      {
                        OFFSET -2.0404 -0.1441 0.0027
                      }
                    }
                  }
                }
                JOINT RightHandRing1
                {
                  OFFSET -8.5234 0.597198 -2.0164
                  CHANNELS 3 Zrotation Xrotation Yrotation
                  JOINT RightHandRing2
                  {
                    OFFSET -3.7188 -0.188309 -0.2328
                    CHANNELS 3 Zrotation Xrotation Yrotation
                    JOINT RightHandRing3
                    {
                      OFFSET -2.1191 -0.106598 -0.1332
                      CHANNELS 3 Zrotation Xrotation Yrotation
                      End Site
                      {
                        OFFSET -1.8737 -0.2304 -0.0886
                      }
                    }
                  }
                }
                JOINT RightHandPinky1
                {
                  OFFSET -7.9094 -0.601105 -3.4825
                  CHANNELS 3 Zrotation Xrotation Yrotation
                  JOINT RightHandPinky2
                  {
                    OFFSET -2.2874 -0.477005 -0.6314
                    CHANNELS 3 Zrotation Xrotation Yrotation
                    JOINT RightHandPinky3
                    {
                      OFFSET -1.6774 -0.349396 -0.4633
                      CHANNELS 3 Zrotation Xrotation Yrotation
                      End Site
                      {
                        OFFSET -1.4888 -0.4091 -0.3416
                      }
                    }
                  }
                }
                JOINT RightHandThumb1
                {
                  OFFSET -1.833 -1.38751 1.3896
                  CHANNELS 3 Zrotation Xrotation Yrotation
                  JOINT RightHandThumb2
                  {
                    OFFSET -3.41299 -1.12099 2.5732
                    CHANNELS 3 Zrotation Xrotation Yrotation
                    JOINT RightHandThumb3
                    {
                      OFFSET -2.24741 -0.804108 1.6192
                      CHANNELS 3 Zrotation Xrotation Yrotation
                      End Site
                      {
                        OFFSET -1.6527 -0.5689 1.1317
                      }
                    }
                  }
                }
              }
            }
          }
        }
      }
    }
  }
  JOINT RightUpLeg
  {
    OFFSET -9.1966 3.8861 -0.7581
    CHANNELS 3 Zrotation Xrotation Yrotation
    JOINT RightLeg
    {
      OFFSET -0.7359 -41.0265 0
      CHANNELS 3 Zrotation Xrotation Yrotation
      JOINT RightFoot
      {
        OFFSET 0 -40.2855 0
        CHANNELS 3 Zrotation Xrotation Yrotation
        JOINT RightToeBase
        {
          OFFSET 0 -5.6122 11.7359
          CHANNELS 3 Zrotation Xrotation Yrotation
          End Site
          {
            OFFSET 0 0 7.8731
          }
        }
      }
    }
  }
  JOINT LeftUpLeg
  {
    OFFSET 9.1965 3.8864 -0.7581
    CHANNELS 3 Zrotation Xrotation Yrotation
    JOINT LeftLeg
    {
      OFFSET 0.7359 -41.0268 0
      CHANNELS 3 Zrotation Xrotation Yrotation
      JOINT LeftFoot
      {
        OFFSET 0 -40.2855 0
        CHANNELS 3 Zrotation Xrotation Yrotation
        JOINT LeftToeBase
        {
          OFFSET 0 -5.6122 11.7359
          CHANNELS 3 Zrotation Xrotation Yrotation
          End Site
          {
            OFFSET 0 0 7.8731
          }
        }
      }
    }
  }
}
MOTION
Frames:	4
Frame Time:	0.0333333
0.0450506 -7.50618 -56.5157 -0 -63.0022 -0 6.98432e-015 2.79923 -1.25233e-014 -4.52308e-022 5.59846 5.99622e-022 9.47464e-022 5.59845 -1.59434e-022 6.17003e-021 30.9991 -2.54981e-021 -0.0016765 -9.63019 21.9989 8.26446e-022 -1.52629e-005 -2.04284e-022 -76.0183 2.87599e-006 40.9982 4.14774 2.79367 -146.144 8.99653e-006 -4.28347e-006 -1.62462e-006 -5.33065e-006 9.27404e-007 1.14851e-006 6.09366e-006 -2.51184e-006 -2.82239e-006 -6.2108e-006 1.06599e-006 -2.6677e-007 -5.33065e-006 9.27404e-007 1.14851e-006 -0.0146026 -8.77582e-005 1.3286e-006 -5.33117e-006 9.27255e-007 1.14863e-006 -5.33065e-006 9.27404e-007 1.14851e-006 -0.0187796 -0.00117948 5.70609e-005 -5.33131e-006 9.27177e-007 1.14871e-006 -5.33065e-006 9.27404e-007 1.14851e-006 -0.0122606 -0.00325272 0.000676574 -5.33105e-006 9.27197e-007 1.14878e-006 -5.33065e-006 9.27404e-007 1.14851e-006 6.09366e-006 -2.51184e-006 -2.82239e-006 -6.2108e-006 1.06599e-006 -2.6677e-007 3.51649e-007 -6.42983e-006 10.9996 71.794 27.6181 25.0109 -2.02531 4.67853 102.125 54.0969 -41.9938 -1.34865 4.47386e-008 1.19483e-008 9.61434e-008 1.78955e-007 4.77932e-008 3.84574e-007 4.47387e-008 1.19483e-008 9.61434e-008 4.47386e-008 1.19483e-008 9.61434e-008 0.0150217 -9.18936e-005 -5.46285e-007 4.47385e-008 1.19608e-008 9.61418e-008 4.47386e-008 1.19483e-008 9.61434e-008 0.0189625 -0.00119122 -5.8044e-005 3.13459e-008 4.3514e-007 1.98134e-008 4.47386e-008 1.19483e-008 9.61434e-008 0.0121813 -0.00322489 -0.000670994 4.47412e-008 1.19588e-008 9.61409e-008 4.47386e-008 1.19483e-008 9.61434e-008 1.78955e-007 4.77932e-008 3.84574e-007 4.47387e-008 1.19483e-008 9.61434e-008 -63.6246 -35.9824 -86.2562 0.014649 74.7178 -4.21029 -2.95968 16.8741 -0.834355 4.46376e-006 1.63522e-005 4.21928e-007 56.379 -41.7466 78.8617 -0.0153192 74.6828 4.10151 2.03792 10.9384 1.13506 9.76804e-007 2.80797e-006 1.191e-006 
0.0450511 -7.5062 -56.5157 -0 -63.0022 -0 -3.88018e-015 2.79923 6.95739e-015 1.68179e-022 5.59846 3.45938e-022 -2.42912e-022 5.59845 3.41954e-022 2.38159e-021 30.9991 -2.3122e-021 -0.00169266 -10.3552 21.9988 1.95928e-022 -1.52629e-005 -2.77677e-022 -76.0183 2.87599e-006 40.9982 4.14774 2.79367 -146.144 0.665883 -1.00236e-005 -1.41083e-008 1.59028e-015 0 -0 0 1.59028e-015 -0 2.38542e-015 0 -0 1.59028e-015 0 -0 -0.0146336 -8.42361e-005 4.23662e-006 -1.59028e-015 -3.18055e-015 -0 1.59028e-015 0 -0 -0.018758 -0.00117588 6.40728e-005 -7.95139e-016 1.59028e-015 -0 1.59028e-015 0 -0 -0.012255 -0.00324312 0.000673231 7.95139e-016 3.18055e-015 3.18055e-015 1.59028e-015 0 -0 0 1.59028e-015 -0 2.38542e-015 0 -0 3.51649e-007 -6.42983e-006 10.9996 71.794 27.6181 25.0109 -2.02532 4.67853 102.125 54.1115 -41.8458 0.247494 2.38542e-015 6.36111e-015 -2.38542e-015 3.97569e-015 3.18055e-015 -1.59028e-015 2.38542e-015 -6.36111e-015 2.38542e-015 2.38542e-015 6.36111e-015 -2.38542e-015 0.0150542 -9.20703e-005 1.97133e-006 6.78067e-007 -2.65526e-006 1.41218e-007 2.38542e-015 6.36111e-015 -2.38542e-015 0.0190238 -0.00118999 -5.95488e-005 2.38542e-015 9.54166e-015 -7.95139e-016 2.38542e-015 6.36111e-015 -2.38542e-015 0.0121706 -0.00322261 -0.00067116 1.59028e-015 0 -7.95139e-016 2.38542e-015 6.36111e-015 -2.38542e-015 3.97569e-015 3.18055e-015 -1.59028e-015 2.38542e-015 -6.36111e-015 2.38542e-015 -63.6243 -35.9834 -86.2568 0.0146533 74.7164 -4.24327 -2.95828 16.8734 -0.834783 6.38597e-006 1.00907e-006 -2.44655e-007 56.3784 -41.7475 78.862 -0.0151558 74.6814 4.1343 2.0365 10.9375 1.13542 1.61303e-005 1.48817e-005 -6.35388e-006 
0.0450524 -7.50621 -56.5157 -0 -63.0022 -0 1.55207e-015 2.79923 -2.78295e-015 -1.67546e-022 5.59846 1.48205e-022 2.3506e-023 5.59845 3.4042e-023 -1.54329e-021 30.9991 1.59318e-021 -0.00171163 -11.0798 21.9988 -6.3201e-024 -1.52629e-005 -5.10552e-024 -76.0183 2.87599e-006 40.9982 4.14774 2.79367 -146.144 1.33207 -8.91909e-006 -9.88246e-006 7.95139e-016 0 -6.36111e-015 3.97569e-015 -1.59028e-015 -3.18055e-015 2.38542e-015 -1.59028e-015 -3.18055e-015 7.95139e-016 0 -6.36111e-015 -0.0146115 -8.76727e-005 2.43928e-006 0 1.59028e-015 -0 7.95139e-016 0 -6.36111e-015 -0.0187619 -0.00117517 5.77459e-005 -7.95139e-016 1.59028e-015 -0 7.95139e-016 0 -6.36111e-015 -0.0122948 -0.00325289 0.000676301 7.95139e-016 1.59028e-015 -3.18055e-015 7.95139e-016 0 -6.36111e-015 3.97569e-015 -1.59028e-015 -3.18055e-015 2.38542e-015 -1.59028e-015 -3.18055e-015 3.51649e-007 -6.42983e-006 10.9996 71.794 27.6181 25.0109 -2.02531 4.67853 102.125 54.1205 -41.6971 1.84394 1.79214e-007 4.28642e-008 3.84737e-007 4.11047e-007 -1.17658e-007 -1.1279e-006 1.79214e-007 4.28642e-008 3.84737e-007 1.79214e-007 4.28642e-008 3.84737e-007 0.0150318 -9.41087e-005 -2.51972e-007 1.79212e-007 4.29147e-008 3.84731e-007 1.79214e-007 4.28642e-008 3.84737e-007 0.0189687 -0.0011894 -6.16246e-005 1.79215e-007 4.29282e-008 3.84728e-007 1.79214e-007 4.28642e-008 3.84737e-007 0.0121541 -0.00321761 -0.000673094 1.79223e-007 4.29065e-008 3.84728e-007 1.79214e-007 4.28642e-008 3.84737e-007 4.11047e-007 -1.17658e-007 -1.1279e-006 1.79214e-007 4.28642e-008 3.84737e-007 -63.6239 -35.9844 -86.2573 0.0145638 74.715 -4.27617 -2.95687 16.8727 -0.835221 6.66072e-006 6.81412e-006 1.65619e-006 56.3778 -41.7484 78.8623 -0.0151707 74.68 4.16728 2.03513 10.9368 1.13576 -6.36111e-015 3.18055e-015 3.18055e-015 
0.045053 -7.50623 -56.5157 -0 -63.0022 -0 -3.10414e-015 2.79923 5.56591e-015 3.73924e-022 5.59846 -2.52416e-022 -2.01096e-024 5.59845 -2.64942e-023 2.75416e-021 30.9991 -1.55582e-021 -0.00172783 -11.804 21.9988 1.26403e-023 -1.52629e-005 1.02114e-023 -76.0183 2.87599e-006 40.9982 4.14774 2.79367 -146.144 1.99851 -6.2667e-006 -7.95807e-006 4.77063e-008 -4.33448e-007 -1.79825e-006 -3.18055e-015 -1.59028e-015 -3.18055e-015 -1.59028e-015 -1.59028e-015 -3.18055e-015 4.77063e-008 -4.33448e-007 -1.79825e-006 -0.0146287 -8.70434e-005 2.82205e-006 1.19271e-014 -7.95139e-015 -3.18055e-015 4.77063e-008 -4.33448e-007 -1.79825e-006 -0.0187409 -0.00117554 5.63926e-005 7.95139e-016 0 -9.54166e-015 4.77063e-008 -4.33448e-007 -1.79825e-006 -0.0122776 -0.00324775 0.000685329 2.38542e-015 1.59028e-015 3.18055e-015 4.77063e-008 -4.33448e-007 -1.79825e-006 -3.18055e-015 -1.59028e-015 -3.18055e-015 -1.59028e-015 -1.59028e-015 -3.18055e-015 3.51649e-007 -6.42983e-006 10.9996 71.794 27.6181 25.0109 -2.02531 4.67853 102.125 54.124 -41.548 3.4401 3.18055e-015 -3.18055e-015 -7.95139e-016 0 0 -7.95139e-016 1.59028e-015 0 -7.95139e-016 3.18055e-015 -3.18055e-015 -7.95139e-016 0.0150051 -9.31385e-005 -8.84487e-007 1.59028e-015 0 7.95139e-016 3.18055e-015 -3.18055e-015 -7.95139e-016 0.0189442 -0.00118816 -5.86321e-005 -1.76556e-031 6.36111e-015 1.59028e-015 3.18055e-015 -3.18055e-015 -7.95139e-016 0.0122405 -0.00323833 -0.000674288 -7.95139e-015 -6.36111e-015 1.59028e-015 3.18055e-015 -3.18055e-015 -7.95139e-016 0 0 -7.95139e-016 1.59028e-015 0 -7.95139e-016 -63.6235 -35.9855 -86.2578 0.0145866 74.7136 -4.30916 -2.95548 16.8719 -0.835661 7.11681e-007 1.31553e-005 -1.52923e-006 56.3772 -41.7493 78.8626 -0.0151073 74.6786 4.20016 2.03375 10.936 1.13611 -7.95139e-015 -9.54166e-015 7.95139e-015 
